 <svg width="870" height="798" viewBox="0 0 870 798" fill="none" xmlns="http://www.w3.org/2000/svg">
<path d="M0 399C0 322.792 0 284.687 6.51965 253.039C32.0723 129 129 32.0723 253.039 6.51965C284.687 0 322.792 0 399 0H471C547.208 0 585.312 0 616.961 6.51965C741 32.0723 837.928 129 863.48 253.039C870 284.687 870 322.792 870 399C870 475.208 870 513.312 863.48 544.961C837.928 669 741 765.928 616.961 791.48C585.312 798 547.208 798 471 798H399C322.792 798 284.687 798 253.039 791.48C129 765.928 32.0723 669 6.51965 544.961C0 513.312 0 475.208 0 399Z" fill="#0B193B"/>
<path d="M243 286C243 279.373 248.373 274 255 274H609C615.627 274 621 279.373 621 286V515C621 521.628 615.627 527 609 527H255C248.373 527 243 521.628 243 515V286Z" fill="#94C02F"/>
<rect x="263" y="295" width="338" height="212" rx="8" fill="#87B524"/>
<path d="M569.422 400.586C569.422 400.839 569.347 401.087 569.206 401.298C569.066 401.509 568.866 401.673 568.633 401.77C568.399 401.867 568.142 401.893 567.894 401.843C567.646 401.794 567.418 401.671 567.24 401.492C567.061 401.313 566.939 401.084 566.89 400.836C566.84 400.587 566.866 400.329 566.963 400.095C567.059 399.861 567.223 399.66 567.433 399.52C567.643 399.379 567.891 399.303 568.143 399.303C568.482 399.303 568.807 399.439 569.047 399.679C569.287 399.919 569.422 400.246 569.422 400.586Z" fill="white"/>
<path d="M298.15 400.246C298.14 400.589 297.997 400.916 297.751 401.155C297.505 401.394 297.176 401.528 296.834 401.528C296.495 401.528 296.17 401.393 295.93 401.153C295.69 400.912 295.556 400.586 295.556 400.246C295.556 399.906 295.69 399.58 295.93 399.339C296.17 399.099 296.495 398.964 296.834 398.964C297.176 398.964 297.505 399.098 297.751 399.337C297.997 399.576 298.14 399.903 298.15 400.246Z" fill="white"/>
<path fill-rule="evenodd" clip-rule="evenodd" d="M593 297H271C267.686 297 265 299.687 265 303V499C265 502.314 267.686 505 271 505H593C596.314 505 599 502.314 599 499V303C599 299.687 596.314 297 593 297ZM271 295H593C597.418 295 601 298.582 601 303V499C601 503.419 597.418 507 593 507H271C266.582 507 263 503.419 263 499V303C263 298.582 266.582 295 271 295Z" fill="white"/>
<path fill-rule="evenodd" clip-rule="evenodd" d="M550.302 338.044H600.684V463.127H550.302V338.044ZM552.302 340.044V461.127H598.684V340.044H552.302Z" fill="white"/>
<path fill-rule="evenodd" clip-rule="evenodd" d="M582.669 373.604H600.646V428.623H582.669V373.604ZM584.669 375.604V426.623H598.646V375.604H584.669Z" fill="white"/>
<path fill-rule="evenodd" clip-rule="evenodd" d="M541.682 387.846C543.854 383.783 546.994 380.321 550.822 377.769L551.931 379.433C548.378 381.802 545.463 385.016 543.446 388.788C541.43 392.561 540.375 396.776 540.375 401.057C540.375 405.338 541.43 409.552 543.446 413.325C545.463 417.098 548.378 420.312 551.931 422.68L550.822 424.345C546.994 421.793 543.854 418.331 541.682 414.268C539.511 410.205 538.375 405.667 538.375 401.057C538.375 396.447 539.511 391.909 541.682 387.846Z" fill="white"/>
<path fill-rule="evenodd" clip-rule="evenodd" d="M430.304 505.68V296.32H432.304V505.68H430.304Z" fill="white"/>
<path fill-rule="evenodd" clip-rule="evenodd" d="M441.234 375.543C438.06 374.245 434.662 373.586 431.235 373.605L431.228 373.605C426.013 373.599 420.914 375.148 416.578 378.056C412.243 380.964 408.867 385.1 406.881 389.939C404.895 394.778 404.389 400.099 405.426 405.228C406.463 410.356 408.998 415.059 412.706 418.738C416.415 422.416 421.13 424.906 426.252 425.889C431.374 426.872 436.672 426.305 441.472 424.26C446.272 422.215 450.358 418.784 453.209 414.402C456.061 410.021 457.549 404.888 457.484 399.655L458.484 399.643L457.484 399.648C457.465 396.209 456.771 392.807 455.441 389.636C454.112 386.466 452.172 383.59 449.735 381.172C447.297 378.754 444.409 376.841 441.234 375.543ZM459.484 399.634C459.463 395.934 458.716 392.274 457.286 388.863C455.854 385.451 453.767 382.355 451.143 379.752C448.519 377.149 445.409 375.089 441.992 373.692C438.575 372.294 434.917 371.585 431.227 371.605C425.615 371.599 420.128 373.266 415.464 376.395C410.799 379.525 407.168 383.975 405.031 389.18C402.895 394.384 402.35 400.108 403.466 405.624C404.582 411.14 407.308 416.199 411.298 420.157C415.288 424.116 420.362 426.795 425.875 427.853C431.388 428.911 437.09 428.301 442.256 426.1C447.422 423.899 451.818 420.207 454.885 415.493C457.952 410.781 459.553 405.26 459.484 399.634Z" fill="white"/>
<path fill-rule="evenodd" clip-rule="evenodd" d="M263.315 338.044H313.698V463.127H263.315V338.044ZM265.315 340.044V461.127H311.698V340.044H265.315Z" fill="white"/>
<path fill-rule="evenodd" clip-rule="evenodd" d="M263.315 373.566H281.293V428.585H263.315V373.566ZM265.315 375.566V426.585H279.293V375.566H265.315Z" fill="white"/>
<path fill-rule="evenodd" clip-rule="evenodd" d="M320.574 388.755C318.553 384.979 315.631 381.764 312.069 379.396L313.177 377.731C317.013 380.281 320.16 383.744 322.337 387.811C324.514 391.878 325.653 396.422 325.653 401.038C325.653 405.654 324.514 410.198 322.337 414.265C320.16 418.332 317.013 421.795 313.177 424.345L312.069 422.68C315.631 420.312 318.553 417.097 320.574 413.321C322.595 409.545 323.653 405.325 323.653 401.038C323.653 396.751 322.595 392.532 320.574 388.755Z" fill="white"/>
</svg>
