<svg width="29" height="29" viewBox="0 0 29 29" fill="none" xmlns="http://www.w3.org/2000/svg">
<path d="M23.6201 14.6876C23.513 14.5819 23.3852 14.4978 23.2441 14.4403C23.103 14.3828 22.9515 14.3529 22.7984 14.3525C22.6453 14.3521 22.4936 14.3812 22.3522 14.438C22.2108 14.4947 22.0826 14.5781 21.9749 14.6833C21.8672 14.7884 21.7823 14.9132 21.725 15.0503C21.6678 15.1875 21.6394 15.3343 21.6415 15.4821C21.6436 15.63 21.6762 15.776 21.7373 15.9115C21.7984 16.0471 21.8869 16.1696 21.9975 16.2718C22.9764 17.2021 23.7531 18.3117 24.2819 19.5358C24.8107 20.7598 25.0811 22.0735 25.077 23.3997C25.077 24.7626 21.0317 26.7425 14.6924 26.7425C8.35303 26.7425 4.30775 24.7616 4.30775 23.3975C4.30387 22.0803 4.57056 20.7755 5.09241 19.5586C5.61426 18.3416 6.38088 17.2367 7.34791 16.3078C7.45728 16.2048 7.5444 16.0819 7.60419 15.9462C7.66399 15.8104 7.69528 15.6646 7.69625 15.5171C7.69721 15.3696 7.66784 15.2233 7.60983 15.0869C7.55182 14.9504 7.46633 14.8264 7.35831 14.7221C7.2503 14.6178 7.12191 14.5352 6.9806 14.4792C6.83929 14.4232 6.68786 14.3948 6.53511 14.3958C6.38236 14.3967 6.23132 14.4269 6.09075 14.4847C5.95018 14.5424 5.82289 14.6265 5.71625 14.7322C4.53405 15.8678 3.59687 17.2186 2.95898 18.7064C2.32108 20.1942 1.99515 21.7894 2.00005 23.3997C2.00005 27.0184 8.53891 28.971 14.6924 28.971C20.8459 28.971 27.3847 27.0184 27.3847 23.3997C27.3898 21.7786 27.0595 20.1728 26.413 18.6767C25.7665 17.1806 24.8169 15.8243 23.6201 14.6876Z" fill="#0B193B"/>
<path d="M14.6923 15.5996C16.2897 15.5996 17.8513 15.1421 19.1795 14.2851C20.5078 13.428 21.543 12.2099 22.1543 10.7846C22.7657 9.35942 22.9256 7.79114 22.614 6.27813C22.3023 4.76512 21.5331 3.37533 20.4035 2.28451C19.2739 1.19369 17.8348 0.450831 16.268 0.149874C14.7012 -0.151082 13.0772 0.00337952 11.6014 0.593727C10.1255 1.18407 8.86406 2.18379 7.97656 3.46646C7.08906 4.74913 6.61536 6.25714 6.61536 7.79979C6.61783 9.86769 7.46958 11.8502 8.98376 13.3124C10.4979 14.7747 12.5509 15.5972 14.6923 15.5996ZM14.6923 2.22851C15.8333 2.22851 16.9487 2.55526 17.8975 3.16744C18.8462 3.77962 19.5857 4.64974 20.0223 5.66776C20.459 6.68577 20.5732 7.80597 20.3506 8.88669C20.128 9.96741 19.5785 10.9601 18.7717 11.7393C17.9649 12.5184 16.9369 13.049 15.8178 13.264C14.6987 13.479 13.5387 13.3687 12.4845 12.947C11.4303 12.5253 10.5293 11.8112 9.89533 10.895C9.2614 9.97883 8.92304 8.90168 8.92304 7.79979C8.92484 6.32273 9.53325 4.90666 10.6148 3.86223C11.6963 2.81778 13.1627 2.23025 14.6923 2.22851Z" fill="#0B193B"/>
</svg>
