<svg width="6" height="6" viewBox="0 0 6 6" fill="none" xmlns="http://www.w3.org/2000/svg">
<path fill-rule="evenodd" clip-rule="evenodd" d="M3 0C3.40302 0 3.72973 0.326711 3.72973 0.72973V2.27027H5.27027C5.67329 2.27027 6 2.59698 6 3C6 3.40302 5.67329 3.72973 5.27027 3.72973H3.72973V5.27027C3.72973 5.67329 3.40302 6 3 6C2.59698 6 2.27027 5.67329 2.27027 5.27027V3.72973H0.72973C0.326711 3.72973 0 3.40302 0 3C0 2.59698 0.326711 2.27027 0.72973 2.27027H2.27027V0.72973C2.27027 0.326711 2.59698 0 3 0Z" fill="#0B193B"/>
</svg>
