<svg width="30" height="30" viewBox="0 0 30 30" fill="none" xmlns="http://www.w3.org/2000/svg">
<path d="M12.2027 27.3886C10.1176 26.9509 8.32427 26.0328 6.89131 24.6942C5.47551 23.3728 4.43726 21.6567 3.87952 19.5974C3.38184 17.7525 3.30462 15.7704 3.48481 13.7969C3.665 11.8405 4.10261 9.90127 4.64319 8.12508C4.69467 7.96205 4.73758 7.91915 4.729 7.90199C4.72042 7.86766 4.69467 7.93631 4.56597 7.89341C4.14552 7.74754 3.8881 7.47296 3.73365 7.14689C3.57919 6.80367 3.57061 6.40038 3.665 6.01425L4.17984 3.89484V3.8691L4.18842 3.84336C4.31713 3.46581 4.56597 3.17407 4.89203 2.99388C5.20093 2.83084 5.58706 2.77078 5.99035 2.86517L9.60279 3.62884L10.0919 3.73181L10.0404 4.22948L10.0147 4.58987L9.96317 5.2849L9.66285 5.21625L9.68859 7.42147H20.4573L20.4487 5.21625L20.0797 5.31064L20.054 4.59845L20.0454 4.23807L20.0368 3.75755L20.5002 3.66316L24.1812 2.87375C24.5845 2.77936 24.9535 2.83943 25.2796 3.00246C25.5971 3.18265 25.8545 3.46581 25.9832 3.85194L25.9918 3.87768V3.90342L26.5066 6.02283C26.601 6.40038 26.5924 6.81225 26.438 7.15547C26.2835 7.4987 26.0175 7.7647 25.6056 7.90199C25.4769 7.95347 25.4598 7.86766 25.4426 7.91057C25.434 7.93631 25.4769 7.97063 25.5284 8.13366C26.0604 9.90985 26.4894 11.8491 26.6868 13.8054C26.8756 15.779 26.7898 17.7697 26.2921 19.6059C25.7343 21.6567 24.6961 23.3814 23.2803 24.7028C21.8473 26.0414 20.0368 26.9681 17.9689 27.3971C17.4111 27.5173 16.9049 27.6031 16.4415 27.6631C15.9782 27.7232 15.5234 27.7489 15.0601 27.7489H15.0515C14.5881 27.7489 14.1419 27.7232 13.67 27.6631C13.2667 27.6031 12.7776 27.5087 12.2027 27.3886Z" fill="#231F20"/>
<path fill-rule="evenodd" clip-rule="evenodd" d="M23.3317 16.4998C23.5205 16.4998 23.675 16.6542 23.675 16.843C23.675 17.0317 23.5205 17.1862 23.3317 17.1862C23.143 17.1862 22.9885 17.0317 22.9885 16.843C22.9799 16.6542 23.1344 16.4998 23.3317 16.4998ZM12.3228 26.8308C13.404 27.0539 14.2534 27.1655 15.1115 27.1655H15.1201C15.9781 27.1655 16.8276 27.0625 17.9088 26.8308C21.8387 26.0071 24.7218 23.3728 25.7944 19.4429C26.7554 15.8905 26.0947 11.7718 25.0307 8.27952C24.8505 7.70462 24.8848 7.54159 25.4683 7.33565C25.9917 7.15546 26.1118 6.64062 25.9917 6.13437L25.4769 4.01496C25.3139 3.53444 24.8848 3.2856 24.3528 3.42289L21.0493 4.1265V4.46973C22.1562 4.20373 23.2802 3.98063 24.3957 3.7747C24.8162 3.67173 25.0307 3.83476 25.1337 4.13509C25.3139 4.87302 25.4769 5.52514 25.6571 6.27166C25.7515 6.57198 25.6657 6.88088 25.3568 7.00101C24.5588 7.26701 24.4472 7.61023 24.6617 8.35675C25.6828 11.8147 26.3693 15.8648 25.4254 19.3571C24.4043 23.1497 21.5984 25.681 17.8144 26.479C16.7761 26.6935 15.9438 26.7965 15.0943 26.7965H15.0858C14.2534 26.7965 13.404 26.6935 12.3657 26.479C8.56449 25.681 5.77579 23.1411 4.7547 19.3571C3.81083 15.8648 4.4887 11.8147 5.51838 8.35675C5.74147 7.61023 5.62134 7.25843 4.82335 7.00101C4.51444 6.88088 4.42864 6.57198 4.52302 6.27166C4.70322 5.53373 4.86625 4.8816 5.04644 4.13509C5.14083 3.83476 5.36392 3.67173 5.78438 3.7747C6.89127 3.98063 7.99817 4.19515 9.09649 4.45257L9.08791 4.10934L5.83586 3.41431C5.31244 3.29419 4.88341 3.54302 4.7118 4.00638L4.19696 6.12579C4.07683 6.62346 4.19696 7.14688 4.72038 7.32707C5.31244 7.53301 5.33818 7.69604 5.15799 8.27094C4.11116 11.7718 3.43329 15.8819 4.39432 19.4343C5.5098 23.3642 8.39288 26.0071 12.3228 26.8308ZM15.3861 26.5648C16.7933 26.5047 18.5695 26.1873 19.7708 25.6467C26.7983 22.5062 26.3864 14.449 24.4558 8.41681C24.2155 7.47294 24.2155 7.15546 25.2881 6.73501C25.4426 6.67495 25.494 6.52908 25.4168 6.35746L24.9191 4.27238C24.8505 4.05786 24.696 3.9978 24.4901 4.05786C23.3317 4.24663 22.1905 4.47831 21.0579 4.77005L21.0664 7.41288V17.9585C21.0664 22.5062 16.2613 20.9273 15.1887 23.2699C15.1544 23.3213 15.1287 23.3986 15.0943 23.4329C15.0686 23.3814 15.0343 23.3042 15.0085 23.2699C13.936 20.9359 9.13081 22.5233 9.13081 17.9585V7.4043L9.10507 4.74431C7.98101 4.46115 6.85695 4.22947 5.70715 4.0407C5.50121 3.98063 5.34676 4.0407 5.27812 4.25521L4.78044 6.3403C4.72038 6.5205 4.77186 6.65779 4.90915 6.71785C5.98173 7.14688 5.98173 7.45578 5.74147 8.39965C3.81083 14.4318 3.39038 22.4719 10.4265 25.6295C11.6278 26.1615 13.404 26.4876 14.8112 26.5476C14.9313 26.5648 15.2402 26.5648 15.3861 26.5648ZM23.3317 16.1136C22.9284 16.1136 22.6024 16.4311 22.6024 16.843C22.6024 17.2463 22.9199 17.5723 23.3317 17.5723C23.735 17.5723 24.0611 17.2548 24.0611 16.843C24.0611 16.4397 23.7264 16.1136 23.3317 16.1136ZM7.04573 5.21624C7.44901 5.21624 7.77508 5.53373 7.77508 5.9456C7.77508 6.35746 7.45759 6.67495 7.04573 6.67495C6.63386 6.67495 6.31637 6.35746 6.31637 5.9456C6.31637 5.53373 6.64244 5.21624 7.04573 5.21624ZM23.0571 5.24198C23.4604 5.24198 23.7865 5.55947 23.7865 5.97134C23.7865 6.38321 23.469 6.70069 23.0571 6.70069C22.6539 6.70069 22.3278 6.38321 22.3278 5.97134C22.3278 5.55947 22.6624 5.24198 23.0571 5.24198ZM6.86553 16.1136C7.26882 16.1136 7.59488 16.4311 7.59488 16.843C7.59488 17.2463 7.2774 17.5723 6.86553 17.5723C6.45366 17.5723 6.13618 17.2548 6.13618 16.843C6.14476 16.4397 6.46224 16.1136 6.86553 16.1136ZM8.90772 21.4422C9.31101 21.4422 9.63707 21.7597 9.63707 22.1715C9.63707 22.5748 9.31959 22.9009 8.90772 22.9009C8.50443 22.9009 8.17837 22.5834 8.17837 22.1715C8.17837 21.7682 8.49585 21.4422 8.90772 21.4422ZM21.2724 21.4422C21.6757 21.4422 22.0017 21.7597 22.0017 22.1715C22.0017 22.5748 21.6843 22.9009 21.2724 22.9009C20.8691 22.9009 20.543 22.5834 20.543 22.1715C20.543 21.7682 20.8777 21.4422 21.2724 21.4422ZM7.04573 5.58521C7.2345 5.58521 7.38895 5.73966 7.38895 5.92843C7.38895 6.11721 7.2345 6.27166 7.04573 6.27166C6.85695 6.27166 6.7025 6.11721 6.7025 5.92843C6.68534 5.73966 6.85695 5.58521 7.04573 5.58521ZM23.0571 5.61095C23.2459 5.61095 23.4004 5.7654 23.4004 5.95418C23.4004 6.14295 23.2459 6.31456 23.0571 6.31456C22.8684 6.31456 22.7139 6.16011 22.7139 5.95418C22.7139 5.7654 22.8684 5.61095 23.0571 5.61095ZM6.86553 16.4998C7.05431 16.4998 7.20876 16.6542 7.20876 16.843C7.20876 17.0317 7.05431 17.1862 6.86553 17.1862C6.67676 17.1862 6.52231 17.0317 6.52231 16.843C6.52231 16.6542 6.67676 16.4998 6.86553 16.4998ZM8.90772 21.8112C9.09649 21.8112 9.25094 21.9656 9.25094 22.1544C9.25094 22.3431 9.09649 22.4976 8.90772 22.4976C8.71895 22.4976 8.56449 22.3431 8.56449 22.1544C8.54733 21.9828 8.70178 21.8112 8.90772 21.8112ZM21.2724 21.8112C21.4612 21.8112 21.6156 21.9656 21.6156 22.1544C21.6156 22.3431 21.4612 22.4976 21.2724 22.4976C21.0836 22.4976 20.9292 22.3431 20.9292 22.1544C20.9292 21.9828 21.0836 21.8112 21.2724 21.8112Z" fill="#FFCA05"/>
<path d="M4.78045 12.0893L7.71502 7.4043H9.42257V3.66315H9.37108H8.92489V3.20838V2.60774V2.316H9.3625C10.1691 2.316 10.4437 2.50477 11.0271 3.1998C11.6106 2.50477 11.8595 2.316 12.6918 2.316H12.9578V2.59916V3.20838V3.61167H12.8119C12.7776 3.61167 12.7604 3.61167 12.7433 3.61167V5.4136H13.3782V3.61167H13.3267H13.1809V3.20838V2.60774V2.316H13.4469C14.3135 2.34174 14.528 2.50477 15.1115 3.1998C15.695 2.50477 15.9438 2.29026 16.7762 2.316H17.0422V2.59916V3.20838V3.61167H16.8963C16.862 3.61167 16.8448 3.61167 16.8276 3.61167V5.4136H17.4197V3.61167H17.3682H17.2481V3.20838V2.60774V2.316H17.4712C18.3035 2.29026 18.5523 2.50477 19.1358 3.1998C19.7193 2.50477 20.0025 2.29026 20.8005 2.316H21.2381V2.59916V3.20838V3.66315H20.7833C20.749 3.66315 20.7318 3.66315 20.7147 3.66315L20.7232 7.4043H22.405L25.3739 12.0378L26.232 11.7204C26.2835 11.4973 26.4122 11.2999 26.601 11.2055C26.9957 11.0167 27.4933 11.2656 27.7336 11.7547C27.9739 12.2438 27.8537 12.8015 27.459 12.9817C27.2531 13.0761 27.0214 13.0675 26.8069 12.9474L24.8162 14.1229L25.1594 15.3156L25.0307 15.5902H24.4472L23.6235 14.7407L20.7318 15.8219L20.7404 17.8727V17.8812C24.6617 19.6059 26.292 21.8455 20.5859 20.0864L20.2256 19.9577C19.0929 21.8712 16.3042 20.9445 15.0858 22.9181C14.1591 21.1075 11.1044 21.794 9.91166 19.9148L9.41399 20.1036C3.62207 21.8884 5.38968 19.5716 9.42257 17.8297V15.8991L6.37645 14.7579L5.55271 15.6074H4.96923L4.84052 15.3328L5.18374 14.1401L3.19304 12.9645C2.97853 13.0847 2.73827 13.0932 2.54091 12.9989C2.14621 12.8101 2.02608 12.2609 2.26633 11.7718C2.50659 11.2827 3.01285 11.0339 3.39898 11.2227C3.60491 11.3171 3.71646 11.5058 3.76794 11.7375L4.78045 12.0893Z" fill="#231F20"/>
<path fill-rule="evenodd" clip-rule="evenodd" d="M9.71428 7.40422V3.43998C9.7057 3.31127 9.62848 3.21688 9.37964 3.21688V2.83076C10.212 2.82217 10.7268 3.10534 11.0357 3.71456C11.3446 3.10534 11.868 2.82217 12.6918 2.83076V3.2083C12.4429 3.2083 12.3485 3.30269 12.3314 3.4314V5.85113H13.7815V3.43998C13.7729 3.31127 13.6957 3.21688 13.4468 3.21688V2.83076C14.2792 2.82217 14.794 3.10534 15.1029 3.71456C15.4118 3.10534 15.9352 2.82217 16.759 2.83076V3.2083C16.5101 3.2083 16.4157 3.30269 16.3986 3.4314V5.85113H17.8058V3.43998C17.7972 3.31127 17.72 3.21688 17.4712 3.21688V2.83076C18.3035 2.82217 18.8183 3.10534 19.1272 3.71456C19.4361 3.10534 19.9595 2.82217 20.7833 2.83076V3.2083C20.5173 3.2083 20.4401 3.30269 20.4229 3.4314V7.39564H12.4429C12.1254 7.39564 11.8509 7.48145 11.6792 7.70454C11.499 7.49861 11.3017 7.42138 11.0872 7.39564H9.71428V7.40422ZM9.78293 12.6641C10.5723 12.5783 11.3532 12.5097 12.1426 12.4582C11.3789 13.2047 10.9156 14.2601 10.9156 15.4099C10.9156 17.7181 12.7861 19.5887 15.0943 19.5887C17.4025 19.5887 19.2731 17.7181 19.2731 15.4099C19.2731 14.2516 18.8097 13.2219 18.0461 12.4582C18.8355 12.5097 19.6163 12.5612 20.3971 12.647V17.7953C20.4486 19.4428 19.7793 20.5154 18.252 20.8672C15.3946 21.5622 15.6864 21.7596 15.0943 22.3688C14.5023 21.7596 14.794 21.5622 11.9367 20.8672C10.4093 20.5068 9.7486 19.4342 9.79151 17.7953V12.6641H9.78293Z" fill="#EF4E23"/>
<path fill-rule="evenodd" clip-rule="evenodd" d="M26.7211 11.3855C26.6181 11.437 26.5323 11.5314 26.4808 11.6515C26.4808 11.6515 26.4894 11.6429 26.5066 11.6429C26.7726 11.5142 27.1158 11.6772 27.2702 12.0119C27.3732 12.235 27.3732 12.4924 27.2788 12.664C27.2874 12.664 27.3131 12.6554 27.3303 12.6383C27.6049 12.5096 27.6907 12.1148 27.5191 11.7716C27.3475 11.437 26.9871 11.2568 26.7211 11.3855ZM3.31317 11.3855C3.41614 11.437 3.50194 11.5314 3.55342 11.6515C3.55342 11.6515 3.54484 11.6429 3.52768 11.6429C3.26168 11.5142 2.91846 11.6772 2.76401 12.0119C2.66104 12.235 2.66104 12.4924 2.75543 12.664C2.74685 12.664 2.72111 12.6554 2.70394 12.6383C2.42936 12.5096 2.34356 12.1148 2.51517 11.7716C2.68678 11.437 3.04717 11.2568 3.31317 11.3855ZM7.93812 14.2943L9.41398 14.8521V13.831L7.1487 12.9729C7.09722 13.5221 7.4147 14.1141 7.93812 14.2943ZM20.5688 19.0566L23.9324 20.3179C23.3832 19.5113 22.1905 18.8077 20.7404 18.1299C20.7232 18.4559 20.6889 18.7219 20.5688 19.0566ZM7.22593 11.8145L7.01141 12.6726L6.82264 12.6125L5.89593 14.5432L6.20483 14.6461L5.45832 15.3926L5.17516 15.3841L5.48406 14.526L6.93419 11.866L7.22593 11.8145ZM5.24381 12.6983C4.99497 12.8614 4.90058 13.1531 5.00355 13.3676C5.02929 13.2046 5.14942 13.033 5.36393 12.93C5.57845 12.827 5.81871 12.7841 6.01606 12.8356C6.00748 12.8099 5.99032 12.8013 5.98174 12.7756C5.87877 12.6211 5.67284 12.561 5.4669 12.5954C5.4669 12.5868 5.45832 12.5868 5.45832 12.5696C5.36393 12.4237 5.158 12.3637 4.96923 12.4152C4.96923 12.4066 4.96065 12.3894 4.96065 12.3808C4.86626 12.235 4.67749 12.1921 4.49729 12.235C4.49729 12.2264 4.48871 12.2092 4.48871 12.2092C4.39432 12.0805 4.22271 12.029 4.0511 12.0805C4.0511 12.0719 4.04252 12.0548 4.04252 12.0548C3.92239 11.8746 3.66497 11.8488 3.45046 11.9947C3.26168 12.1234 3.17588 12.3551 3.26168 12.5267C3.27026 12.398 3.38181 12.2607 3.54484 12.1663C3.6993 12.0805 3.86233 12.0634 4.02536 12.0805C3.97387 12.0891 3.93955 12.1148 3.90523 12.1406C3.71646 12.2693 3.63065 12.501 3.71646 12.6726C3.72504 12.5439 3.83659 12.4066 3.99962 12.3122C4.15407 12.2264 4.33426 12.2092 4.48871 12.2264C4.43723 12.235 4.39433 12.2607 4.34284 12.295C4.12833 12.4409 4.04252 12.6897 4.12833 12.8785C4.13691 12.7326 4.25704 12.5954 4.43723 12.501C4.60026 12.4152 4.79761 12.3808 4.96065 12.4066C4.90916 12.4152 4.86626 12.4409 4.81477 12.4752C4.59168 12.6297 4.50587 12.8957 4.60026 13.0845C4.60884 12.9386 4.72897 12.7841 4.9349 12.6812C5.09794 12.5954 5.29529 12.561 5.4669 12.5868C5.36393 12.6297 5.30387 12.6468 5.24381 12.6983ZM22.0961 14.2943L20.7576 14.792V13.7709L22.877 12.9729C22.937 13.5221 22.6195 14.1141 22.0961 14.2943ZM9.61134 19.0137L6.11045 20.3351C6.66819 19.4856 7.9467 18.7734 9.47405 18.0698C9.43973 18.3444 9.49121 18.7133 9.61134 19.0137ZM22.8083 11.8145L23.0228 12.6726L23.2116 12.6125L24.1383 14.5346L23.8294 14.6375L24.5759 15.3841L24.8591 15.3755L24.5502 14.5174L23.1001 11.8574L22.8083 11.8145ZM24.7904 12.6983C25.0307 12.8614 25.1337 13.1531 25.0307 13.3676C25.005 13.2046 24.8848 13.033 24.6703 12.93C24.4558 12.827 24.2155 12.7841 24.0182 12.8356C24.0268 12.8099 24.0439 12.8013 24.0525 12.7756C24.1555 12.6211 24.3614 12.561 24.5673 12.5954C24.5673 12.5868 24.5759 12.5868 24.5759 12.5696C24.6703 12.4237 24.8763 12.3637 25.065 12.4152C25.065 12.4066 25.0736 12.3894 25.0736 12.3808C25.168 12.235 25.3568 12.1921 25.537 12.235C25.537 12.2264 25.5455 12.2092 25.5455 12.2092C25.6313 12.0805 25.8115 12.029 25.9831 12.0805C25.9831 12.0719 25.9917 12.0548 25.9917 12.0548C26.1119 11.8746 26.3693 11.8488 26.5838 11.9947C26.7726 12.1234 26.8584 12.3551 26.7726 12.5267C26.764 12.398 26.6524 12.2607 26.4894 12.1663C26.335 12.0805 26.1548 12.0634 26.0089 12.0805C26.0604 12.0891 26.0947 12.1148 26.129 12.1406C26.3178 12.2693 26.4036 12.501 26.3178 12.6726C26.3092 12.5439 26.1977 12.4066 26.0346 12.3122C25.8802 12.2264 25.7 12.2092 25.5455 12.2264C25.597 12.235 25.6399 12.2607 25.6914 12.295C25.9059 12.4409 25.9917 12.6897 25.9059 12.8785C25.8973 12.7326 25.7772 12.5954 25.597 12.501C25.434 12.4152 25.2366 12.3808 25.0736 12.4066C25.1251 12.4152 25.168 12.4409 25.2195 12.4752C25.4426 12.6297 25.5284 12.8957 25.434 13.0845C25.4254 12.9386 25.3053 12.7841 25.0993 12.6812C24.9363 12.5954 24.739 12.561 24.5673 12.5868C24.6703 12.6297 24.7304 12.6468 24.7904 12.6983Z" fill="#A6A8AB"/>
<path fill-rule="evenodd" clip-rule="evenodd" d="M9.40543 13.9686L7.44905 13.2307C7.50911 13.4195 7.66356 13.6683 7.98105 13.7798L9.41401 14.3118V13.9686H9.40543ZM6.66821 19.9493C7.0715 19.4345 8.04111 18.8252 9.45691 18.1817C9.45691 18.3104 9.46549 18.4477 9.49124 18.5592C8.33285 19.0569 7.80943 19.3229 6.66821 19.9493ZM23.5034 20.0094C23.1001 19.4945 22.1305 18.8853 20.7233 18.2418C20.7147 18.3705 20.6975 18.5078 20.6718 18.6193C21.8302 19.1084 22.3707 19.383 23.5034 20.0094ZM20.7747 13.9171L22.7397 13.1792C22.6796 13.368 22.5252 13.6168 22.2077 13.7284L20.7747 14.2604V13.9171Z" fill="white"/>
<path d="M12.4172 7.63602H13.5927V9.08615H12.8805V8.62279H12.5974L12.4515 10.2445C12.5802 10.2445 12.7604 10.2359 12.8805 10.2359V9.64389L13.6099 9.6353C13.6099 10.1673 13.6099 10.7079 13.6099 11.2399L12.2971 11.2914C12.2456 11.2914 12.2027 11.2914 12.1512 11.2914C11.6621 11.2399 11.4476 10.8366 11.4991 10.3732L11.7222 8.19376C11.7651 7.79047 12.0482 7.63602 12.4172 7.63602ZM6.00747 12.5527L6.59095 11.5917L6.59953 11.5659H6.62528L7.5863 11.4973L7.67211 11.4887L7.64637 11.5745L7.39753 12.5012L8.47869 12.3725V12.3639H8.51301C9.86017 12.2352 11.2073 12.1494 12.5373 12.0979C12.4858 12.1323 12.4344 12.1837 12.3829 12.2181C11.1044 12.2696 9.83443 12.3468 8.55591 12.4669V12.4755H8.52159L7.30314 12.6299L7.21734 12.6385L7.24308 12.5527L7.49192 11.626L6.63386 11.6861L6.09328 12.6128L6.00747 12.5527ZM17.617 12.0894C19.2988 12.1494 20.9806 12.2781 22.6367 12.5098L21.6843 8.73434H22.0275L24.104 12.5098L23.9495 12.5699L21.9503 8.82873H21.8473L22.7997 12.6299C21.1351 12.4068 19.4619 12.2696 17.7801 12.2009C17.72 12.1752 17.6771 12.1408 17.617 12.0894ZM25.0135 12.1837L25.168 12.1237L22.3192 7.63602H20.5688L21.4354 11.7461C19.8051 11.6174 18.1576 11.5316 16.5016 11.4973C16.6045 11.5316 16.7075 11.5831 16.8105 11.6174C18.4065 11.6517 19.9939 11.7376 21.5899 11.8663L21.5813 11.7805L20.7232 7.73899H22.2506L25.0135 12.1837ZM13.3611 11.6174C13.4554 11.5659 13.567 11.5316 13.67 11.4973C11.9882 11.5316 10.3064 11.6174 8.6074 11.7719L9.4912 7.63602H7.81798L5.05502 12.1065L5.00354 12.1923L5.12367 12.2438L7.89521 7.75615H9.34533L8.47869 11.8062L8.47011 11.8748L8.55591 11.8663C10.1519 11.729 11.7651 11.6517 13.3611 11.6174ZM8.09256 8.72576L8.3414 8.73434L7.8523 10.5963L7.05431 10.665L8.09256 8.72576ZM8.21269 8.86305L7.77508 10.4934L7.2774 10.5449L8.15263 8.84589L8.21269 8.86305ZM9.59417 8.61421L9.21662 10.4247L9.02785 10.4505L8.81333 11.5574C9.34533 11.5059 9.89449 11.4544 10.4436 11.4115L10.5895 10.3389C10.4436 10.3475 10.3149 10.3475 10.1691 10.3647L10.1948 10.2359L10.7526 10.1759C11.0872 10.1501 11.3446 10.1158 11.4047 9.68679L11.5591 8.46834C11.5935 8.16802 11.5677 7.97067 11.4647 7.83338C11.3618 7.68751 11.1644 7.62744 10.907 7.62744H9.65423L9.43972 8.61421H9.59417ZM10.5809 9.38647L10.3407 9.41221L10.4694 8.62279H10.6839L10.5809 9.38647ZM13.9445 8.61421H13.7643V7.63602H15.9696V8.87163H15.3003V8.60563H14.8198V9.0175C15.0343 9.0175 15.1887 9.0175 15.4032 9.0175V9.78118H14.8198V10.2016C14.9485 10.2016 15.163 10.2016 15.3003 10.2016V9.93563H16.0039V10.0558V11.2313C15.3003 11.2056 14.4508 11.2056 13.7558 11.2399C13.7558 10.8967 13.7558 10.5449 13.7558 10.2016H13.9445V8.61421ZM16.1927 7.63602V11.2313C16.5016 11.2313 16.8105 11.257 17.1194 11.2656V9.89272H17.4283C17.4283 10.3561 17.4283 10.8194 17.4283 11.2742C17.7372 11.2828 18.0375 11.3085 18.3464 11.3257L18.3378 7.63602H17.4283V8.94886H17.1194V7.63602H16.1927ZM18.5094 10.2789V11.3257C18.8441 11.3343 19.213 11.3772 19.5477 11.3943L19.6163 10.5706L19.951 10.5963L20.0454 11.4458L20.1397 11.4544C20.5001 11.4801 20.8691 11.523 21.2209 11.5488L21.0064 10.4419L20.8434 10.4333L20.2856 7.63602H18.7754L18.6296 8.61421H18.8956C18.8441 9.17195 18.8012 9.73827 18.7325 10.296L18.5094 10.2789ZM19.6506 9.66105H19.8394L19.7536 8.87163H19.685L19.6506 9.66105Z" fill="#EC1C24"/>
<path d="M12.4172 7.75621C12.1083 7.75621 11.8852 7.87634 11.8423 8.21098L11.6192 10.3905C11.5591 10.9225 11.868 11.197 12.2971 11.1799L13.4898 11.1284C13.4898 10.6736 13.4898 10.2103 13.4898 9.75549C13.2838 9.75549 13.2066 9.75549 13.0007 9.76407C13.0007 9.98717 13.0007 10.133 13.0007 10.3476C12.8119 10.3476 12.5116 10.3561 12.3228 10.3733L12.4858 8.5113C12.6489 8.5113 12.8291 8.5113 13.0007 8.5113C13.0007 8.67434 13.0007 8.81163 13.0007 8.97466C13.1894 8.97466 13.2838 8.97466 13.4898 8.97466C13.4898 8.57137 13.4898 8.16808 13.4898 7.75621C13.1122 7.75621 12.8033 7.75621 12.4172 7.75621ZM8.09256 8.72582L8.3414 8.7344L7.85231 10.5964L7.05431 10.665L8.09256 8.72582ZM12.5716 12.0808C11.2245 12.1323 9.89449 12.2095 8.54734 12.3468H8.51301V12.3554L7.43186 12.4841L7.6807 11.5574L7.70644 11.4716L7.62063 11.4802L6.6596 11.5488H6.63386L6.62528 11.5746L6.0418 12.5356L5.14941 12.201L7.90379 7.73047H9.35391L8.47011 11.8063L8.46153 11.8749L8.54734 11.8663C10.1691 11.7205 11.7736 11.6432 13.3696 11.5917C13.0865 11.729 12.8291 11.9006 12.5716 12.0808ZM25.0135 12.1838L22.2334 7.74763H20.7061L21.5641 11.7891L21.5727 11.8749C19.9853 11.7462 18.3893 11.6604 16.7933 11.6261C17.0765 11.7548 17.351 11.9264 17.5999 12.1066C19.2817 12.1666 20.9635 12.2954 22.6195 12.527L21.6671 8.75156H22.0103L24.0868 12.527L25.0135 12.1838ZM9.58559 8.49414H9.74004L9.31101 10.5277L9.12224 10.5535L8.95921 11.4116C9.55127 11.3601 9.81727 11.3257 10.3407 11.2914L10.4437 10.4591C10.3149 10.4677 10.1004 10.4848 10.0232 10.4848L10.0918 10.1245L10.6238 10.0644C10.9585 10.0301 11.2331 10.0558 11.276 9.66111L11.4218 8.45982C11.4819 7.9364 11.336 7.75621 10.8727 7.75621C10.478 7.75621 10.1262 7.75621 9.7143 7.75621L9.58559 8.49414ZM10.8212 8.49414L10.3664 8.50272L10.1948 9.5324L10.6753 9.48091L10.8212 8.49414ZM13.8759 8.49414C13.9274 8.49414 14.0046 8.49414 14.0561 8.49414C14.0561 9.12911 14.0561 9.66969 14.0561 10.3132H13.8673V11.1112C14.4851 11.1027 15.2574 11.0769 15.8838 11.1027C15.8838 10.7337 15.8838 10.4076 15.8838 10.0387C15.6778 10.0387 15.6178 10.0387 15.4204 10.0387C15.4204 10.1588 15.4204 10.1931 15.4204 10.3047C15.2316 10.3047 14.897 10.3047 14.7082 10.3047C14.7082 10.0987 14.7082 9.86704 14.7082 9.65253C14.8712 9.65253 15.1115 9.65253 15.2917 9.65253C15.2917 9.44659 15.2917 9.33504 15.2917 9.12911C15.1287 9.12911 14.8712 9.12911 14.7082 9.12911C14.7082 8.91459 14.7082 8.70008 14.7082 8.48556C14.8369 8.48556 15.2831 8.48556 15.4204 8.48556C15.4204 8.61427 15.4204 8.60569 15.4204 8.75156C15.6092 8.75156 15.6607 8.75156 15.8494 8.75156C15.8494 8.39118 15.8494 8.10802 15.8494 7.74763C15.2402 7.74763 14.4765 7.74763 13.8759 7.74763C13.8759 7.97931 13.8759 8.26247 13.8759 8.49414ZM16.3128 11.1112V7.75621C16.5359 7.75621 16.7676 7.75621 17.0078 7.75621C17.0078 8.19382 17.0078 8.62285 17.0078 9.06904C17.1365 9.06904 17.4111 9.06904 17.5398 9.06904C17.5398 8.63143 17.5398 8.18524 17.5398 7.75621H18.2177V10.3905V11.197C17.9946 11.1885 17.7801 11.1627 17.5398 11.1627C17.5398 10.7079 17.5398 10.236 17.5398 9.78124C17.4111 9.78124 17.1365 9.78124 17.0078 9.78124C17.0078 10.236 17.0078 10.6994 17.0078 11.1541C16.7676 11.1284 16.5531 11.1112 16.3128 11.1112ZM18.6296 10.399H18.8441C18.9127 9.78124 18.9642 9.12053 19.0328 8.49414H18.7926L18.8956 7.75621H20.1912L20.749 10.5363L20.912 10.5449L21.075 11.403C20.7747 11.3772 20.4401 11.3429 20.1483 11.3172L20.0539 10.4677L19.5048 10.4334L19.4361 11.2571C19.1701 11.2485 18.8784 11.2056 18.6296 11.197C18.6124 10.9739 18.6296 10.6393 18.6296 10.399ZM19.9767 9.78124L19.5391 9.77266L19.5992 8.76014H19.8823L19.9767 9.78124Z" fill="white"/>
<path fill-rule="evenodd" clip-rule="evenodd" d="M15.0857 19.5973C17.3853 19.5973 19.2645 17.7181 19.2645 15.4185C19.2645 13.1189 17.3853 11.2397 15.0857 11.2397C12.7861 11.2397 10.907 13.1189 10.907 15.4185C10.907 17.7267 12.7861 19.5973 15.0857 19.5973Z" fill="#231F20"/>
<path fill-rule="evenodd" clip-rule="evenodd" d="M15.0858 19.3485C17.2395 19.3485 19.0071 17.5809 19.0071 15.4272C19.0071 13.2735 17.2481 11.5059 15.0858 11.5059C12.9235 11.5059 11.1644 13.2735 11.1644 15.4272C11.173 17.5809 12.932 19.3485 15.0858 19.3485Z" fill="white" stroke="#231F20" stroke-width="0.1172" stroke-miterlimit="22.9256"/>
<path fill-rule="evenodd" clip-rule="evenodd" d="M12.2284 13.6251C11.8252 13.6251 11.3446 13.9597 11.1902 14.7234C11.3361 13.7023 12.0568 12.5439 13.1466 11.9604C13.0522 12.1149 13.0522 12.2436 13.1208 12.3895C12.6918 12.707 12.3829 13.1017 12.2284 13.6251Z" fill="#E6E7E8"/>
<path fill-rule="evenodd" clip-rule="evenodd" d="M15.0772 15.4013C14.7168 15.0066 14.3821 14.5948 14.0904 14.1486C14.2448 13.7109 14.5537 13.342 14.9999 13.0245C15.5834 12.9988 16.0811 13.1704 16.5015 13.5136C16.7246 14.0113 16.7161 14.4746 16.5959 14.9294C16.0983 15.1267 15.6006 15.2812 15.0772 15.4013Z" fill="#231F20"/>
<path fill-rule="evenodd" clip-rule="evenodd" d="M14.0732 14.1488C13.6185 14.2003 13.1637 14.2775 12.7261 14.5092C12.503 14.2432 12.3228 13.96 12.2112 13.6254C12.606 12.4069 13.6785 11.8749 14.4765 12.2096C14.691 12.4498 14.8369 12.7416 14.9656 13.0333C14.5795 13.3251 14.2534 13.6854 14.0732 14.1488Z" fill="#F1F1F2"/>
<path fill-rule="evenodd" clip-rule="evenodd" d="M12.237 15.9847C11.971 15.9246 11.7393 15.9503 11.5248 15.9761C11.3446 15.7616 11.1558 15.4956 11.1644 15.0665C11.1644 14.9722 11.1644 14.8606 11.1901 14.7662C11.2159 14.6375 11.2502 14.5174 11.2845 14.3973C11.4905 13.8824 11.8594 13.6336 12.237 13.625C12.3314 13.9425 12.503 14.2342 12.7518 14.5088C12.4086 14.9636 12.2284 15.4355 12.237 15.9847Z" fill="#231F20"/>
<path fill-rule="evenodd" clip-rule="evenodd" d="M12.7432 14.5005C13.138 14.2946 13.6013 14.1916 14.0904 14.1401C14.3907 14.5777 14.7254 14.9982 15.0772 15.3929C14.8712 15.8734 14.7339 16.3539 14.6224 16.8345C14.0732 17.049 13.5841 17.1004 13.0865 17.1176C12.5716 16.7572 12.3228 16.3797 12.237 15.9764C12.2284 15.4616 12.4086 14.9725 12.7432 14.5005Z" fill="#F1F1F2"/>
<path fill-rule="evenodd" clip-rule="evenodd" d="M11.5248 15.9591C11.2245 15.6159 11.0872 15.2212 11.1816 14.7578C11.1473 14.9809 11.1215 15.2126 11.1215 15.4357C11.1215 16.1479 11.3275 16.8257 11.7307 17.4693C11.5506 17.0145 11.4562 16.5083 11.5248 15.9591Z" fill="#D0D2D3"/>
<path fill-rule="evenodd" clip-rule="evenodd" d="M11.5248 15.9593C11.7393 15.9335 11.9796 15.9335 12.237 15.9678C12.3657 16.4655 12.6574 16.8517 13.0865 17.1091C13.0178 17.6325 13.0865 18.0015 13.2924 18.2675C12.7003 18.4734 12.1855 18.1816 11.7307 17.4695C11.542 16.9975 11.439 16.4998 11.5248 15.9593Z" fill="#E6E7E8"/>
<path fill-rule="evenodd" clip-rule="evenodd" d="M13.0865 17.1176C13.6785 17.0919 14.1848 17.0147 14.6224 16.8345C14.8713 17.2549 15.2145 17.6239 15.6349 17.9414C15.3174 18.4734 15.0514 18.7737 14.8455 18.7909C14.1162 18.8509 13.6871 18.5849 13.2838 18.276C13.0865 18.01 13.0178 17.6153 13.0865 17.1176Z" fill="#231F20"/>
<path fill-rule="evenodd" clip-rule="evenodd" d="M12.6575 18.293C12.7519 18.6963 13.2753 18.9452 13.9188 19.1597C14.5881 19.3742 15.3003 19.3656 15.3861 19.1597C15.1373 19.0996 14.9914 18.9537 14.8627 18.7907C14.365 18.8165 13.8588 18.7221 13.301 18.2759C13.0779 18.3445 12.8634 18.3531 12.6575 18.293Z" fill="#BBBDBF"/>
<path fill-rule="evenodd" clip-rule="evenodd" d="M12.6575 18.293C12.4687 18.2329 12.1684 18.0527 11.8938 17.7095C12.1083 18.0441 12.6403 18.5161 12.9578 18.7134C12.8033 18.5933 12.6918 18.4646 12.6575 18.293Z" fill="#231F20"/>
<path fill-rule="evenodd" clip-rule="evenodd" d="M15.0686 15.393C15.6006 15.2901 16.1068 15.127 16.5959 14.9297C16.9735 15.2128 17.291 15.5647 17.5226 15.9679C17.5312 16.4999 17.4197 17.0148 17.0593 17.4695C16.6217 17.7098 16.1755 17.9072 15.6435 17.9501C15.2659 17.6497 14.9141 17.2808 14.631 16.8432C14.7082 16.3798 14.8541 15.8907 15.0686 15.393Z" fill="#D0D2D3"/>
<path fill-rule="evenodd" clip-rule="evenodd" d="M14.8541 18.7821C15.1373 18.7307 15.3861 18.3445 15.6435 17.9327C16.167 17.8983 16.6303 17.7096 17.0593 17.4521C17.2395 17.6924 17.4541 17.8297 17.6771 17.9498C17.6171 18.3274 17.4541 18.6449 16.6389 18.9967C15.9095 19.3485 15.1974 19.3227 14.8541 18.7821Z" fill="#929497"/>
<path fill-rule="evenodd" clip-rule="evenodd" d="M14.6224 19.3141C14.9571 19.3227 15.2917 19.3227 15.3604 19.1854C15.7036 19.2712 16.0039 19.2455 16.2699 19.1597C15.8752 19.2798 15.4805 19.3484 15.0944 19.3484C14.9313 19.3484 14.7769 19.3313 14.6224 19.3141Z" fill="#231F20"/>
<path fill-rule="evenodd" clip-rule="evenodd" d="M17.5055 15.9591C17.8745 15.9248 18.1834 15.7789 18.4494 15.5815C19.256 16.3538 18.1748 18.027 17.66 17.9755C17.4111 17.8468 17.2052 17.6752 17.0422 17.4779C17.3854 17.0317 17.5399 16.534 17.5055 15.9591Z" fill="#231F20"/>
<path fill-rule="evenodd" clip-rule="evenodd" d="M17.1108 18.7736C17.4197 18.5676 17.5741 18.3703 17.6685 17.9756C17.986 17.9841 18.5266 17.3835 18.6896 16.6885C18.7239 16.6885 18.7754 16.6885 18.8097 16.6971C18.5437 17.4951 17.9946 18.1901 17.1108 18.7736Z" fill="#6D6E70"/>
<path fill-rule="evenodd" clip-rule="evenodd" d="M16.5874 14.9383C16.7075 14.4835 16.6818 14.0116 16.493 13.5225C16.7332 13.2822 17.0421 13.1535 17.3854 13.1021C18.0632 13.3766 18.3464 13.737 18.4494 14.1231C18.6124 14.8697 18.5781 15.2815 18.4579 15.5733C18.1834 15.7964 17.8745 15.9337 17.5141 15.9508C17.291 15.5561 16.9735 15.2215 16.5874 14.9383Z" fill="#BBBDBF"/>
<path fill-rule="evenodd" clip-rule="evenodd" d="M18.6896 16.6884C18.7583 16.2851 18.7583 15.899 18.4494 15.5815C18.5781 15.3069 18.5695 14.8092 18.4408 14.1314C18.5609 14.0799 18.6553 14.0027 18.7411 13.8911C19.1444 14.9294 19.1101 15.8475 18.8098 16.6884C18.7669 16.697 18.7325 16.6884 18.6896 16.6884Z" fill="#808184"/>
<path fill-rule="evenodd" clip-rule="evenodd" d="M14.9828 13.0334C14.8541 12.7331 14.7082 12.4499 14.4937 12.2097C14.7082 11.7206 15.3003 11.6262 16.1412 11.8665C17.0593 12.1325 17.4626 12.5615 17.394 13.1021C17.0507 13.1621 16.7418 13.2823 16.5016 13.5225C16.064 13.1707 15.5749 12.9819 14.9828 13.0334Z" fill="#DBDCDD"/>
<path fill-rule="evenodd" clip-rule="evenodd" d="M17.3854 13.1019C17.4197 12.8016 17.3167 12.5184 16.9649 12.2439C17.085 12.1838 17.2309 12.1752 17.4197 12.2095C17.9946 12.69 18.4665 13.222 18.7325 13.8999C18.6381 14.02 18.5437 14.0887 18.4322 14.1402C18.3378 13.6854 17.986 13.3422 17.3854 13.1019Z" fill="#231F20"/>
<path fill-rule="evenodd" clip-rule="evenodd" d="M16.9735 12.2351C16.4587 11.9262 15.9267 11.7375 15.3432 11.7375C15.2488 11.5916 15.0686 11.5144 14.8541 11.4371C15.7723 11.3857 16.6303 11.6173 17.4197 12.2008C17.2481 12.1579 17.1022 12.1837 16.9735 12.2351Z" fill="#A6A8AB"/>
<path fill-rule="evenodd" clip-rule="evenodd" d="M13.1208 12.3897C13.0521 12.2438 13.035 12.1065 13.1465 11.9606C13.6442 11.6517 14.2191 11.4801 14.8712 11.4458C15.0772 11.5144 15.2488 11.6003 15.3517 11.7461C14.9227 11.7461 14.6395 11.9006 14.5023 12.2095C14.0732 12.055 13.6356 12.055 13.1208 12.3897Z" fill="#231F20"/>
<path fill-rule="evenodd" clip-rule="evenodd" d="M15.0686 15.393C15.6006 15.2901 16.1068 15.127 16.5959 14.9297H16.6045C16.0554 15.2987 15.1287 15.3673 15.1544 15.6419C15.1801 15.9079 15.0085 16.3541 14.794 16.7059C14.6396 16.9547 15.5062 17.7184 15.6435 17.9329C15.2659 17.6326 14.9141 17.2636 14.631 16.826C14.7082 16.3798 14.8541 15.8907 15.0686 15.393Z" fill="white"/>
<path fill-rule="evenodd" clip-rule="evenodd" d="M16.5788 14.938C16.9735 15.2211 17.2738 15.573 17.5055 15.9762C17.5656 16.4396 17.4026 17.0231 17.0422 17.4779C16.6131 17.7181 16.1584 17.9155 15.6349 17.9584C17.4197 17.658 17.8917 16.0449 16.5788 14.938Z" fill="#808184"/>
<path fill-rule="evenodd" clip-rule="evenodd" d="M17.557 13.1704C18.1147 13.4364 18.3636 13.7539 18.4494 14.1229C18.6124 14.8694 18.5781 15.2812 18.458 15.573C18.2091 15.7875 17.9088 15.9162 17.5913 15.9505C18.6982 15.6073 18.5352 15.0581 18.3378 14.2087C18.2692 13.8998 17.9603 13.4364 17.557 13.1704Z" fill="#808184"/>
<path fill-rule="evenodd" clip-rule="evenodd" d="M16.5874 14.9383C16.7075 14.4835 16.6818 14.0116 16.493 13.5225C16.656 13.3595 16.8705 13.2479 17.1108 13.1621C16.9306 13.2308 16.6474 13.4796 16.6474 13.5826C16.6474 13.6769 16.7933 13.9258 16.7761 14.0974C16.7676 14.3377 16.7504 14.5522 16.8448 14.8267C16.9907 15.2815 17.5913 15.6162 17.5141 15.9851C17.2652 15.5733 16.9735 15.2215 16.5874 14.9383Z" fill="white"/>
<path fill-rule="evenodd" clip-rule="evenodd" d="M18.6896 16.6884C18.7583 16.2851 18.7583 15.899 18.4494 15.5815C18.5695 15.2983 18.5695 14.8092 18.4408 14.1313C18.8183 14.8435 18.5266 15.3241 18.5695 15.5471C18.5781 15.6158 19.0243 16.2508 18.6896 16.6884Z" fill="#BBBDBF"/>
<path fill-rule="evenodd" clip-rule="evenodd" d="M14.8627 18.7821C15.1373 18.7221 15.3775 18.3274 15.6349 17.9327C16.1583 17.8983 16.6131 17.7096 17.0507 17.4521C17.2309 17.6924 17.4454 17.8297 17.6685 17.9498C17.4454 17.9155 17.2309 17.8211 17.0936 17.6409C16.6646 17.8898 16.2012 18.07 15.6778 18.1214C15.4719 18.4732 15.2231 18.7392 14.8627 18.7821Z" fill="#BBBDBF"/>
<path fill-rule="evenodd" clip-rule="evenodd" d="M17.5999 18.1987C17.4798 18.5076 17.291 18.7221 16.6389 19.0225C16.0296 19.297 15.4376 19.3228 15.0515 19.0139C15.4547 19.1941 16.0554 19.1083 16.6732 18.8251C17.1623 18.5849 17.4369 18.3961 17.5999 18.1987Z" fill="#6D6E70"/>
<path fill-rule="evenodd" clip-rule="evenodd" d="M17.5055 15.9589C17.8488 15.9246 18.1491 15.7959 18.3979 15.6157C18.2349 15.8989 17.7029 16.019 17.7029 16.1134C17.7286 16.3966 17.6943 16.551 17.6342 16.7913C17.5656 17.0144 17.454 17.2203 17.291 17.4348C17.2052 17.5292 17.4111 17.7695 17.66 17.9668C17.3854 17.8381 17.1966 17.6579 17.0422 17.4691C17.3768 17.0229 17.5313 16.5253 17.5055 15.9589Z" fill="#58595B"/>
<path fill-rule="evenodd" clip-rule="evenodd" d="M15.0772 15.4012C14.7168 15.0065 14.3821 14.5947 14.0904 14.1485C14.2448 13.7109 14.5537 13.3419 14.9999 13.0244C15.0514 13.0244 15.1029 13.0244 15.1544 13.0244C13.7815 13.9425 14.262 14.4745 15.223 15.3583C15.163 15.3755 15.1201 15.3927 15.0772 15.4012Z" fill="#58595B"/>
<path fill-rule="evenodd" clip-rule="evenodd" d="M12.7433 14.5005C13.0179 14.3546 13.3268 14.2603 13.6614 14.2002C13.4212 14.286 13.1981 14.3804 12.9921 14.5005C12.6575 14.7065 12.2971 15.453 12.3486 15.9678C12.4086 16.517 12.7776 16.7915 13.0779 17.1262C12.6403 16.8773 12.3143 16.3883 12.2285 15.985C12.2285 15.4615 12.4086 14.9725 12.7433 14.5005Z" fill="#D0D2D3"/>
<path fill-rule="evenodd" clip-rule="evenodd" d="M14.3478 14.5347C14.3993 14.5862 15.0257 15.3584 15.06 15.4013C14.8541 15.8818 14.7168 16.3623 14.6053 16.8429C14.0561 17.0574 13.567 17.1089 13.0693 17.126C13.936 16.9458 14.4766 16.86 14.7254 16.1135C14.9828 15.4013 14.7683 15.2125 14.3478 14.5347Z" fill="#BBBDBF"/>
<path fill-rule="evenodd" clip-rule="evenodd" d="M13.0865 17.1176C13.6785 17.0919 14.1848 17.0147 14.6224 16.8345C14.8112 17.152 15.0514 17.4437 15.3517 17.7011C14.9227 17.3665 14.7425 17.2463 14.5023 17.1434C14.1934 16.9975 13.4297 17.2463 13.3267 17.4094C13.2066 17.5724 13.1122 17.8041 13.3353 18.3018C13.3267 18.2932 13.3096 18.276 13.301 18.276C13.0865 18.01 13.0178 17.6153 13.0865 17.1176Z" fill="#58595B"/>
<path fill-rule="evenodd" clip-rule="evenodd" d="M12.6489 14.3891C12.4601 14.166 12.3314 13.9 12.2285 13.6168C12.5459 12.5528 13.4212 12.0208 14.1591 12.1152C12.9835 12.1409 11.9796 13.3508 12.6489 14.3891Z" fill="#E6E7E8"/>
<path fill-rule="evenodd" clip-rule="evenodd" d="M14.0732 14.1487C14.0389 14.1487 13.7129 14.2002 13.6785 14.2002C13.9874 14.1487 14.1333 13.8312 14.3478 13.5223C14.7683 12.9045 14.9056 13.0847 14.5366 12.2695C14.7168 12.4926 14.8541 12.75 14.9656 13.016C14.5795 13.3249 14.2534 13.6853 14.0732 14.1487Z" fill="#D0D2D3"/>
<path fill-rule="evenodd" clip-rule="evenodd" d="M13.0865 17.1435C13.0178 17.6584 13.095 18.0273 13.2924 18.2762C12.7003 18.4821 12.1855 18.1904 11.7307 17.4782C11.6707 17.3323 11.4218 16.7059 11.5248 15.9766C11.5505 16.4742 11.6535 16.8689 11.7908 17.1693C12.1083 17.9158 12.6231 18.1475 12.7947 18.0617C12.9578 17.9673 12.829 17.6069 13.0865 17.1435Z" fill="#BBBDBF"/>
<path fill-rule="evenodd" clip-rule="evenodd" d="M12.6575 18.293C12.6918 18.4475 12.7862 18.5676 12.9235 18.6877C12.769 18.4046 13.0522 18.3531 13.3182 18.4647C13.6614 18.6105 14.1677 18.8336 14.5795 18.7993C14.2106 18.7478 13.8502 18.7135 13.2924 18.2759C13.0779 18.3445 12.8634 18.3531 12.6575 18.293Z" fill="#E6E7E8"/>
<path fill-rule="evenodd" clip-rule="evenodd" d="M13.3096 18.9281C13.4898 19.0139 13.6871 19.0911 13.9188 19.1684C14.5881 19.3829 15.3003 19.3829 15.3689 19.1769C15.1029 19.0911 14.9914 18.9538 14.8455 18.7822C14.7854 18.7822 14.5795 18.7822 14.5109 18.7822C14.794 18.9281 14.8283 19.0482 14.7769 19.1169C14.6481 19.2456 14.1247 19.2113 13.6442 19.0568C13.5241 19.0139 13.4211 18.9796 13.3096 18.9281Z" fill="#6D6E70"/>
<path fill-rule="evenodd" clip-rule="evenodd" d="M14.9828 13.0331C15.8666 12.913 16.0468 13.3935 16.9048 13.1275C17.4283 12.9645 16.7847 12.0807 15.8666 11.8147C15.7979 11.7889 15.7379 11.7803 15.6607 11.7632C15.8151 11.7889 15.9696 11.8232 16.1412 11.8662C17.0593 12.1321 17.4626 12.5612 17.3939 13.1018C17.0507 13.1618 16.7418 13.282 16.5016 13.5222C16.0639 13.1704 15.5749 13.016 14.9828 13.0331Z" fill="#929497"/>
<path fill-rule="evenodd" clip-rule="evenodd" d="M12.2284 13.6251C12.0396 13.6251 11.8251 13.6937 11.6364 13.8653C11.7651 13.7023 11.9367 13.6251 12.0997 13.5307C12.34 13.3848 12.34 13.0759 12.4944 12.8786C12.6403 12.6898 12.8119 12.5697 12.9749 12.3637C13.0264 12.2951 13.0264 12.1235 13.1036 12.0205C13.035 12.1492 13.0436 12.2693 13.1036 12.3981C12.6918 12.6984 12.3829 13.1017 12.2284 13.6251Z" fill="white"/>
<path fill-rule="evenodd" clip-rule="evenodd" d="M11.5248 15.9593C11.7394 15.9335 11.9796 15.9335 12.237 15.9678C12.3657 16.4655 12.6575 16.8517 13.0865 17.1091V17.1176C12.6661 16.9289 12.3143 16.6286 12.1426 16.1995C12.0654 15.9936 11.7651 16.0365 11.5248 15.9593Z" fill="white"/>
<path d="M10.4179 22.4634C10.4179 22.8238 10.4179 23.167 10.4179 23.5274C10.5724 23.596 10.7354 23.6561 10.8984 23.7161C10.8984 23.536 10.8984 23.3558 10.8984 23.1842C10.9842 23.2185 11.0615 23.2442 11.1473 23.2785C11.1473 23.7419 11.1473 24.2224 11.1473 24.6858C11.0443 24.6514 10.9413 24.6171 10.8469 24.5828C10.8469 24.7458 10.8469 24.926 10.8469 25.0976C11.276 25.2435 11.705 25.3636 12.1255 25.458C12.1255 25.295 12.1255 25.1234 12.1255 24.9689C12.0311 24.9432 11.9195 24.9174 11.8251 24.9003C11.8251 24.4369 11.8251 23.9821 11.8251 23.5188C11.9109 23.5445 11.9882 23.5703 12.074 23.5874C12.074 23.7676 12.074 23.9307 12.074 24.1109C12.2284 24.1452 12.3914 24.1795 12.5545 24.2138C12.5545 23.8792 12.5545 23.5445 12.5545 23.2099C11.8337 23.004 11.1301 22.7637 10.4179 22.4634ZM13.8931 24.2052C13.8072 23.9307 13.7129 23.6475 13.6271 23.3729C13.3782 23.3386 13.1294 23.3043 12.8634 23.27C12.8634 23.433 12.8634 23.5874 12.8634 23.7591C12.9492 23.7676 13.0178 23.7848 13.1036 23.7934C13.2581 24.1967 13.4211 24.6171 13.5842 25.0204C13.5584 25.0805 13.5327 25.1405 13.5155 25.2006C13.3954 25.192 13.2924 25.1749 13.1723 25.1663C13.1723 25.3293 13.1723 25.4838 13.1723 25.6554C13.4554 25.6897 13.73 25.7154 14.0218 25.7412C14.2363 25.1491 14.4508 24.5485 14.6739 23.9564C14.7425 23.9564 14.8283 23.9564 14.897 23.9564C14.897 23.802 14.897 23.6389 14.897 23.4759C14.6482 23.4759 14.4079 23.4673 14.1591 23.4501C14.0904 23.6818 13.996 23.9478 13.8931 24.2052C13.9102 24.2052 13.8931 24.2052 13.8931 24.2052ZM15.3346 23.9221C15.3346 23.7676 15.3346 23.6046 15.3346 23.4416C15.9438 23.4158 16.4758 23.3558 17.085 23.2785C17.085 23.4416 17.085 23.596 17.085 23.7676C17.025 23.7762 16.9821 23.7934 16.922 23.7934C16.922 24.2481 16.922 24.7029 16.922 25.1491C16.9821 25.1405 17.025 25.1405 17.085 25.1234C17.085 25.2864 17.085 25.4409 17.085 25.6125C16.8105 25.6468 16.5273 25.6811 16.2527 25.7069C16.2527 25.0976 16.2527 24.4884 16.2527 23.8878C16.2184 23.8878 16.2527 23.8963 16.227 23.8963C16.0382 24.5056 15.8666 25.1234 15.6778 25.7412C15.3089 25.7669 15.5234 25.7498 15.2231 25.7669C15.0686 25.7669 14.9227 25.7669 14.7683 25.7669C14.7683 25.6125 14.7683 25.4494 14.7683 25.2864C14.897 25.2864 15.0171 25.2864 15.1458 25.2864C15.2917 24.8316 15.4204 24.394 15.5663 23.9392C15.4976 23.9221 15.4204 23.9221 15.3346 23.9221ZM17.6514 25.0204C17.5656 25.029 17.4883 25.0547 17.4025 25.0719C17.4025 25.2349 17.4025 25.3894 17.4025 25.561C17.6771 25.5095 17.9603 25.458 18.2348 25.3979C18.2606 25.192 18.2949 24.9947 18.3207 24.8059C18.4665 24.7716 18.5952 24.7201 18.7411 24.6858C18.7668 24.8745 18.8012 25.0547 18.8269 25.2435C19.1015 25.1577 19.3846 25.0633 19.6592 24.9603C19.6592 24.7973 19.6592 24.6171 19.6592 24.4455C19.5734 24.4798 19.4962 24.5056 19.419 24.5399C19.3332 24.1023 19.2559 23.6561 19.1701 23.2185C19.2302 23.1927 19.2988 23.167 19.3589 23.1498C19.3589 22.9868 19.3589 22.8152 19.3589 22.635C18.8097 22.8495 18.2778 23.0297 17.7286 23.1842C17.7286 23.3472 17.7286 23.5188 17.7286 23.6732C17.7887 23.6647 17.8573 23.6389 17.9174 23.6218C17.8144 24.068 17.7372 24.5399 17.6514 25.0204ZM18.6896 24.2653C18.5867 24.2996 18.4751 24.3254 18.3807 24.3597C18.4322 24.0165 18.4837 23.6561 18.5352 23.3129C18.5781 23.6218 18.6296 23.9478 18.6896 24.2653Z" fill="#EC1C24"/>
<path d="M19.3418 4.67548L19.0415 5.35335H19.0329V4.67548H18.4751V4.98438H18.6296V5.86819H18.4751V6.18567H19.05V5.60219H19.2731V6.18567H19.848V5.86819H19.685V5.33619H19.4619L19.6164 4.99296H19.8051V4.68406L19.3418 4.67548ZM10.3665 5.01013H10.5209V5.89393H10.3665V6.20283H10.9414V5.01013H11.1559V6.20283H11.7308V5.88535H11.5677V5.01013H11.7222V4.70122H10.3665V5.01013ZM15.8838 4.84709C15.8838 4.6669 15.7293 4.624 15.5749 4.624H15.2746V4.47813H15.4805V4.16064H14.6568V4.46955H14.8713V4.61542H14.571C14.4079 4.61542 14.2621 4.6669 14.2621 4.83851L14.2535 5.61077C14.2535 5.82528 14.3736 5.89393 14.5881 5.89393H14.8713V6.04838H14.6568V6.36586H15.4805V6.04838H15.2746V5.89393H15.5577C15.7637 5.89393 15.8924 5.82528 15.8924 5.61077L15.8838 4.84709ZM15.4805 5.59361H15.2746V4.86425H15.4805V5.59361ZM14.8713 5.59361H14.6568V4.86425H14.8627V5.59361H14.8713Z" fill="#FFF100"/>
<path d="M8.06684 8.74268L8.32426 8.75126L7.84375 10.6132L7.03717 10.6819L8.06684 8.74268Z" fill="#EC1C24"/>
<path d="M8.187 8.86279L7.74938 10.5017L7.25171 10.5532L8.12693 8.86279H8.187Z" fill="#231F20"/>
<path d="M10.8212 8.49414L10.3836 8.50272L10.2034 9.53239L10.6839 9.48949L10.8212 8.49414Z" fill="#EC1C24"/>
<path d="M10.5809 9.38651L10.3492 9.39509L10.478 8.62284L10.6925 8.61426L10.5809 9.38651Z" fill="#231F20"/>
<path d="M19.9767 9.78114L19.5305 9.76398L19.5906 8.75146L19.8823 8.76863L19.9767 9.78114Z" fill="#EC1C24"/>
<path d="M19.6506 9.661H19.8394L19.7708 8.87158H19.7021L19.6506 9.661Z" fill="#231F20"/>
</svg>
