<svg width="30" height="30" viewBox="0 0 30 30" fill="none" xmlns="http://www.w3.org/2000/svg">
<path fill-rule="evenodd" clip-rule="evenodd" d="M15.0415 0L24.5015 15L15.0415 30L5.57147 15L15.0415 0Z" fill="white"/>
<path fill-rule="evenodd" clip-rule="evenodd" d="M15.0416 1.22021L23.7316 15.0002L15.0416 28.7802L6.34155 15.0002L15.0416 1.22021Z" fill="#2E4597"/>
<path fill-rule="evenodd" clip-rule="evenodd" d="M9.41156 13.4999L11.6216 12.0899L12.4716 17.3899C13.0716 16.9499 14.1316 16.0199 14.5416 15.4499C13.3116 14.1199 12.3216 11.8599 12.6916 9.92988C12.9816 8.38988 14.4516 6.81988 16.0816 6.76988C17.6516 6.71988 18.9616 8.92988 18.8616 10.3199L16.9816 10.2099C17.0216 9.86988 17.0616 9.49988 16.8216 9.17988C16.4116 8.61988 15.3716 8.60988 14.9316 9.46988C14.1816 10.9199 14.9816 13.0599 15.6416 13.9599C16.1016 13.4099 16.6416 12.3199 16.7816 11.6199L18.8116 11.5899C18.7016 12.6399 17.8616 14.2799 17.1916 15.1799C18.0716 15.7099 19.4016 16.1999 20.4616 16.3499L20.4216 18.1799C18.8016 18.1899 16.9416 17.4399 15.8416 16.8099C15.7416 16.9399 15.1316 17.6899 15.0016 17.8099C15.9016 18.7399 17.2216 19.7499 18.3516 20.4599L17.8216 22.1399C16.6316 21.5599 14.7916 20.0999 13.6216 18.9199C12.5416 19.7599 11.8216 20.2299 10.7516 20.6799L10.4216 19.0299L10.9816 18.5999L10.2316 14.2199L9.43156 14.6399L9.41156 13.4999Z" fill="white"/>
</svg>
